<svg width="32" height="32" viewBox="0 0 32 32" fill="none" xmlns="http://www.w3.org/2000/svg">
<path d="M17.6622 0C18.9425 0.960005 20.0191 2.16727 20.8266 3.55636H27.5844C28.0646 3.55636 28.4502 3.94183 28.4502 4.42182V27.5709C28.4502 28.0509 28.0646 28.4364 27.5844 28.4364H26.3842C26.1296 28.4364 25.8822 28.32 25.7222 28.1237L16.4256 17.04C18.6297 15.2945 20.0482 12.5891 20.0482 9.54909H20.0555C20.0482 4.29092 15.7782 0.0218182 10.5042 0.0218182H0.865652C0.385542 0.0218182 0 0.407273 0 0.887273V31.1346C0 31.6146 0.385542 32 0.865652 32H21.2267L18.4987 28.7491C18.3315 28.5528 18.0914 28.4364 17.8368 28.4364H4.42282C3.94272 28.4364 3.55717 28.0509 3.55717 27.5709V4.44364C3.55717 3.96364 3.94272 3.57819 4.42282 3.57819H10.5042C13.8068 3.57819 16.4838 6.25455 16.4838 9.55635C16.4838 12.8582 13.8141 15.5418 10.5187 15.5418L24.0491 31.6873C24.2092 31.8837 24.4564 32 24.7111 32H31.1344C31.6144 32 32 31.6146 32 31.1346V0.865456C32 0.385455 31.6144 0 31.1344 0H17.6622Z" fill="url(#paint0_linear_4111_5384)"/>
<defs>
<linearGradient id="paint0_linear_4111_5384" x1="32" y1="16" x2="0" y2="16" gradientUnits="userSpaceOnUse">
<stop stop-color="#996F35"/>
<stop offset="0.5" stop-color="#EBD395"/>
<stop offset="1" stop-color="#996F35"/>
</linearGradient>
</defs>
</svg>
